<?xml version="1.0" encoding="utf-8"?>
<!-- Generator: Adobe Illustrator 27.2.0, SVG Export Plug-In . SVG Version: 6.00 Build 0)  -->
<svg version="1.1" id="Camada_1" xmlns="http://www.w3.org/2000/svg" xmlns:xlink="http://www.w3.org/1999/xlink" x="0px" y="0px"
	 viewBox="0 0 316 150" style="enable-background:new 0 0 316 150;" xml:space="preserve">
<style type="text/css">
	.st0{fill-rule:evenodd;clip-rule:evenodd;fill:#00ADEE;}
	.st1{fill-rule:evenodd;clip-rule:evenodd;fill:#FFFFFF;}
</style>
<path class="st0" d="M65.3,20.6c0.1-0.2,1.3-1.6,2.1-1.6s1.2,1,1.2,1.6c0.2,1.3,0.5,3.1,0.9,6.1c0.7,4.4,1.6,9.4,1.6,9.4
	c-4.6,0.9-15.7,3.5-19.3,4.5C55.7,34.2,63,23.6,65.3,20.6C65.3,20.6,65.3,20.6,65.3,20.6z M96.8,40.3c6.9-0.3,14.2-0.4,14.8-0.4
	c1.8,0,3.2,0.2,3.5,1c0.4,1-0.4,2.2-1.7,3c-0.3,0.2-4.4,2.9-8.9,6C97.7,54.4,89.1,60,89.1,60c0.1,0.2-3.3-14.9-3.9-18.9
	C85.2,41.1,90.9,40.5,96.8,40.3L96.8,40.3L96.8,40.3z M51.8,84.9c0,0-16.2-13.4-17-14.2c0,0,10.2-19.2,13.4-24
	c2-0.5,17-3.3,24.1-4.2c0,0,2.1,11.6,5.2,25C77.5,67.6,56.7,81.4,51.8,84.9C51.8,84.9,51.8,84.9,51.8,84.9z M85.3,97.3L85.3,97.3
	c-2.5-8.6-5-18.2-5-18.2L61,92.7c0,0,22.3,19.6,26.6,23.4c0.1,0.1,1,0.8,1.4,1c0.8,0.4,1.4,0.2,1.7-0.3c0.3-0.5,0.2-1.4,0-2.3
	C89.6,111.1,87.3,104,85.3,97.3L85.3,97.3L85.3,97.3z M24.3,104.7L24.3,104.7c5.5-3.8,22.5-16.1,22.5-16.1
	C43.9,86.1,32.1,76,32.1,76s-9.5,20.2-11.9,25.3c-0.1,0.2-1.1,2.4-0.9,3.7c0.2,0.6,0.7,2.1,3.2,0.9C22.8,105.7,24,104.9,24.3,104.7
	L24.3,104.7L24.3,104.7z M18.9,58.1L18.9,58.1C21.3,60,31,67.7,31,67.7c1.4-2.4,1.3-2.6,4.7-8.4c1.4-2.5,3.5-5.9,6.6-11.3
	c-11.9,2.9-20.7,6-22.7,6.8c-0.1,0-0.8,0.3-1,0.5c-0.5,0.3-0.7,0.7-0.8,1.1C17.8,57.3,18.6,57.9,18.9,58.1L18.9,58.1L18.9,58.1z
	 M105.2,114.8c-2-5.3-4.4-11.8-6.4-18.6c-3.9-12.7-7.1-25-7-25c2.5-1.7,24.6-16.7,40.5-25.8c0.2-0.1,4.9-2.8,5.4-6
	c0.1-0.9,0-1.8-0.3-2.6c-0.8-2.4-2.8-4.5-8.5-4.9c-4.5-0.3-12.2-0.8-20.9-0.3c-8.4,0.3-17.4,1.2-24.1,2.3c0,0-2.7-16.4-3.6-23.2
	c-0.1-0.4-0.5-3-1.2-4.1c-0.7-1.1-1.9-2.1-3.7-2.5C75,4,74.6,4,74.2,4h-0.1c-1.3,0-2.4,0.5-3.1,1c-1.1,0.8-2.4,2.8-2.8,3.4
	c-4.3,6-16.3,23.8-22.3,34c0,0-18.8,5.8-30.2,10.5c-3.4,1.4-3.7,3.1-3.8,4c-0.1,0.7,0,2.4,2.6,4.6c3.3,2.8,13.8,11.4,13.8,11.4
	c-3.7,5.8-17.9,34.8-19.3,42.9c-0.4,2.3-0.4,4.7,1.3,6.9c1.1,1.4,3,2.3,4.9,2.4c2.4,0,5.7-2.5,7.1-3.5c11.3-8.1,33.4-25,33.4-25
	c8.3,7.5,25.9,23.6,35.2,32.2c1.1,1,4.5,4.2,7.8,4.2c6.4,0.2,8.4-5.2,8.7-7.2C108.1,121.4,105.9,116.5,105.2,114.8L105.2,114.8z"/>
<path class="st1" d="M157.4,111.9c-6.6,0-10.6-4.7-10.6-11c0-6.3,4.5-11.3,11.1-11.3c2.5,0,4.5,0.6,5.6,1.2l0,2.9
	c-1.6-1-3.2-1.6-5.6-1.6c-4.9,0-8,3.8-8,8.5s2.9,8.5,7.8,8.5c1.9,0,3.7-0.6,5.2-1.4l0.9,2.3C161.7,111.4,159.5,111.9,157.4,111.9
	L157.4,111.9z"/>
<path class="st1" d="M171.7,97.9c-2.2,0-3.5,1.9-3.5,4.2h6.9C175.1,100.1,173.9,97.9,171.7,97.9L171.7,97.9z M168.2,104.4
	c0,2.8,1.8,5.1,4.9,5.1c1.4,0,2.7-0.5,3.8-1.1l0.8,1.9c-1.4,1-3.4,1.6-5.2,1.6c-5.1,0-7.4-4-7.4-8.3s2.6-8,6.6-8s6.5,3.2,6.5,8v0.8
	L168.2,104.4L168.2,104.4z"/>
<path class="st1" d="M191,111.6v-9.5c0-1.8-0.3-3.9-2.6-3.9c-1.7,0-3.3,1.1-4.6,2.2v11.2H181V96h2.4l0.4,1.8
	c1.8-1.3,3.4-2.2,5.5-2.2s4.6,1.5,4.6,5.5v10.4H191L191,111.6z"/>
<path class="st1" d="M202,111.9c-2.4,0-3.5-1.4-3.5-3.4V98.3h-2.6V96h2.6v-3.5l2.9-0.9V96h4.8l-1,2.3h-3.9v9.2
	c0,1.3,0.5,1.9,1.5,1.9s2.1-0.6,2.7-1l0.9,2C205.2,111.3,203.5,111.9,202,111.9L202,111.9z"/>
<path class="st1" d="M216.4,98.8c-0.4-0.2-1-0.4-1.6-0.4c-0.9,0-2.3,0.7-3.3,1.7v11.4h-2.9V96h2.4l0.4,1.8c1.9-1.8,3.2-2.1,4.4-2.1
	c0.7,0,1.4,0.3,1.8,0.5L216.4,98.8L216.4,98.8z"/>
<path class="st1" d="M220.3,103.7c0,3.5,1.6,5.8,4.4,5.8s4.3-2.3,4.3-5.8s-1.6-5.7-4.4-5.7S220.3,100.3,220.3,103.7L220.3,103.7
	L220.3,103.7z M229.9,97.7c1.4,1.4,2.1,3.6,2.1,6.1s-0.8,4.7-2.2,6.1c-1.3,1.3-3.1,2.1-5.2,2.1s-3.8-0.7-5.1-1.9
	c-1.4-1.5-2.2-3.7-2.2-6.2s0.8-4.7,2.2-6.1c1.3-1.3,3-2.1,5.1-2.1S228.6,96.3,229.9,97.7L229.9,97.7z"/>
<path class="st1" d="M163.4,142c-1.4,1.4-3.4,2.2-6.5,2.2c-2.8,0-4.8-0.8-6.1-2c-1.7-1.6-2.1-4.1-2.1-6.2v-13.8h2.9v13.8
	c0,1.5,0.4,3.2,1.4,4.3c0.8,0.9,2.1,1.4,3.9,1.4c2,0,3.4-0.5,4.2-1.4c0.9-1,1.3-2.4,1.3-4.1v-14h2.9v14.2
	C165.4,138.5,164.8,140.5,163.4,142L163.4,142z"/>
<path class="st1" d="M179,143.9v-9.5c0-1.8-0.3-3.9-2.6-3.9c-1.7,0-3.3,1.1-4.6,2.2v11.1H169v-15.6h2.4l0.4,1.8
	c1.8-1.3,3.4-2.2,5.6-2.2s4.6,1.6,4.6,5.5v10.4L179,143.9L179,143.9z"/>
<path class="st1" d="M185.4,143.9v-15.6h2.9v15.6H185.4z M188.8,123.3c0,1.1-0.9,1.9-1.9,1.9s-1.9-0.9-1.9-1.9c0-1,0.9-1.9,1.9-1.9
	S188.8,122.3,188.8,123.3z"/>
<polygon class="st1" points="198.9,144 196.7,144 190.6,128.3 193.6,128.3 197.8,140.1 197.9,140.1 202.5,128.3 205.4,128.3 "/>
<path class="st1" d="M212.4,130.2c-2.2,0-3.5,1.9-3.5,4.2h6.9C215.8,132.4,214.7,130.2,212.4,130.2L212.4,130.2z M208.9,136.7
	c0,2.8,1.8,5.1,4.9,5.1c1.4,0,2.7-0.5,3.8-1.1l0.8,1.9c-1.4,1-3.4,1.6-5.2,1.6c-5.1,0-7.4-4-7.4-8.4s2.6-8,6.6-8s6.5,3.2,6.5,8
	c0,0.2,0,0.5,0,0.8L208.9,136.7L208.9,136.7z"/>
<path class="st1" d="M229.6,131.1c-0.4-0.2-1-0.4-1.6-0.4c-0.9,0-2.3,0.7-3.3,1.7v11.4h-2.9v-15.6h2.4l0.4,1.7
	c1.9-1.8,3.2-2.1,4.4-2.1c0.7,0,1.4,0.3,1.8,0.5L229.6,131.1L229.6,131.1z"/>
<path class="st1" d="M235.8,144.2c-2.4,0-3.9-0.6-5-1.3l1.1-2.2c0.9,0.6,2.2,1.2,3.9,1.2c1.8,0,3.1-0.8,3.1-2.1
	c0-3.5-7.1-2.2-7.1-7.7c0-2.4,1.8-4.3,5.4-4.3c1.8,0,3,0.4,4.1,0.8v2.5c-1.1-0.5-2.4-1-4-1c-1.5,0-2.7,0.5-2.7,1.8
	c0,3.1,7.3,2.3,7.3,7.5C241.9,142.8,239.1,144.2,235.8,144.2L235.8,144.2z"/>
<path class="st1" d="M244.6,143.9v-15.6h2.9v15.6H244.6z M248,123.3c0,1.1-0.9,1.9-1.9,1.9s-1.9-0.9-1.9-1.9c0-1,0.9-1.9,1.9-1.9
	S248,122.3,248,123.3z"/>
<path class="st1" d="M255.9,144.2c-2.4,0-3.5-1.4-3.5-3.4v-10.2h-2.6v-2.3h2.6v-3.5l2.9-0.9v4.4h4.8l-1,2.3h-3.9v9.2
	c0,1.3,0.5,1.9,1.5,1.9s2.1-0.6,2.7-1l0.9,2C259.1,143.6,257.4,144.2,255.9,144.2L255.9,144.2z"/>
<path class="st1" d="M269,126.3h-2.5l2.9-4.8h3.7L269,126.3L269,126.3z M271.1,136.5l-2.8,0.1c-2.6,0.1-3.7,1-3.7,2.5
	c0,1.5,1,2.6,2.9,2.6s3-0.9,3.6-1.5L271.1,136.5L271.1,136.5L271.1,136.5z M272,143.9l-0.7-1.5c-1,0.9-2.4,1.8-4.7,1.8
	c-2.6,0-4.9-1.9-4.9-4.9s2.3-5,6.4-5.1l3-0.1c0-0.2,0-0.5,0-0.6c0-2.4-1.4-3.3-3.3-3.3s-3.2,0.7-4.1,1.4l-1.1-2
	c1.9-1.4,3.7-1.8,5.7-1.8c3.3,0,5.6,1.4,5.6,5.4v5.2c0,3.7,0.1,4.8,0.3,5.3H272L272,143.9z"/>
<path class="st1" d="M285.4,131.1c-0.4-0.2-1-0.4-1.6-0.4c-0.9,0-2.3,0.7-3.3,1.7v11.4h-2.9v-15.6h2.4l0.4,1.7
	c1.9-1.8,3.2-2.1,4.4-2.1c0.7,0,1.4,0.3,1.8,0.5L285.4,131.1L285.4,131.1z"/>
<path class="st1" d="M289.2,143.9v-15.6h2.9v15.6H289.2z M292.6,123.3c0,1.1-0.9,1.9-2,1.9s-2-0.9-2-1.9c0-1,0.9-1.9,2-1.9
	S292.6,122.3,292.6,123.3z"/>
<path class="st1" d="M297.6,136c0,3.5,1.6,5.8,4.4,5.8s4.3-2.4,4.3-5.8c0-3.5-1.6-5.7-4.4-5.7S297.6,132.6,297.6,136L297.6,136
	L297.6,136z M307.2,130c1.4,1.4,2.1,3.6,2.1,6.1s-0.8,4.6-2.2,6.1c-1.3,1.3-3.1,2-5.2,2s-3.8-0.7-5-1.9c-1.5-1.5-2.3-3.7-2.3-6.2
	s0.8-4.7,2.2-6.1c1.3-1.3,3-2.1,5.1-2.1S305.9,128.6,307.2,130L307.2,130z"/>
<path class="st1" d="M181.4,74.8c-3.2,3.2-7.8,5-14.4,5s-11-1.4-14.1-4.4c-2.9-2.8-4.2-7.1-4.2-12.1V36.1h8.9v26.5
	c0,3.1,1,5.4,2.4,7c1.6,1.8,4.2,2.7,7.2,2.7c3.5,0,5.9-0.9,7.5-2.7c1.5-1.6,2.2-3.8,2.2-6.7V36.1h8.9v26.2
	C185.8,67.5,184.3,71.9,181.4,74.8L181.4,74.8z"/>
<path class="st1" d="M206.7,43.5h-4.8v28.2h4.9c10.6,0,14.8-6.7,14.8-14.2C221.6,49,216.5,43.5,206.7,43.5L206.7,43.5L206.7,43.5z
	 M206.5,79.1h-13.5v-43h14.3c15.4,0,24,8.3,24,21.2S221.4,79.1,206.5,79.1z"/>
<polygon class="st1" points="260.1,43.4 246.3,43.4 246.3,53.7 259.9,53.7 260,61 246.3,61 246.3,79.1 237.4,79.1 237.4,36.1 
	262.4,36.1 "/>
</svg>
